<svg xmlns="http://www.w3.org/2000/svg" fill="none" height="320" viewBox="0 0 1360 320" width="1360"><g fill="#fff"><path d="m1258.63 173.91-48.88-73.315h13.96l41.03 63.191 40.84-63.191h14.14l-49.22 73.315v51.321h-11.87z"></path><path d="m1064.83 162.912c0 6.75.87 13.441 2.62 20.074 1.86 6.517 4.65 12.394 8.37 17.631 3.84 5.121 8.73 9.252 14.67 12.394 5.93 3.142 13.03 4.713 21.29 4.713 8.27 0 15.31-1.571 21.13-4.713 5.93-3.142 10.76-7.273 14.48-12.394 3.84-5.237 6.64-11.114 8.38-17.631 1.87-6.633 2.8-13.324 2.8-20.074 0-6.866-.93-13.557-2.8-20.074-1.74-6.517-4.54-12.336-8.38-17.456-3.72-5.237-8.55-9.427-14.48-12.569-5.82-3.142-12.86-4.713-21.13-4.713-8.26 0-15.36 1.571-21.29 4.713-5.94 3.142-10.83 7.332-14.67 12.569-3.72 5.12-6.51 10.939-8.37 17.456-1.75 6.517-2.62 13.208-2.62 20.074zm-11.87 0c0-8.612 1.22-16.816 3.66-24.613 2.45-7.797 6.11-14.663 11-20.598 4.89-6.052 11-10.823 18.33-14.314 7.45-3.6076 16.06-5.4114 25.83-5.4114 9.78 0 18.33 1.8038 25.66 5.4114 7.34 3.491 13.45 8.262 18.33 14.314 4.89 5.935 8.56 12.801 11 20.598s3.67 16.001 3.67 24.613-1.23 16.816-3.67 24.613-6.11 14.663-11 20.598c-4.88 5.935-10.99 10.707-18.33 14.314-7.33 3.491-15.88 5.237-25.66 5.237-9.77 0-18.38-1.746-25.83-5.237-7.33-3.607-13.44-8.379-18.33-14.314s-8.55-12.801-11-20.598c-2.44-7.797-3.66-16.001-3.66-24.613z"></path><path d="m930.92 100.595h11.87v114.511h69.82v10.125h-81.69z"></path><path d="m797.926 161.691h40.847c8.262 0 14.954-2.095 20.074-6.284 5.121-4.19 7.681-10.59 7.681-19.202s-2.56-15.012-7.681-19.202c-5.12-4.189-11.812-6.284-20.074-6.284h-40.847zm-11.87-61.096h55.335c5.586 0 10.648.814 15.187 2.444 4.539 1.512 8.437 3.84 11.696 6.982 3.258 3.026 5.76 6.75 7.506 11.172 1.745 4.422 2.618 9.426 2.618 15.012s-.873 10.59-2.618 15.012c-1.746 4.422-4.248 8.205-7.506 11.347-3.259 3.025-7.157 5.353-11.696 6.982-4.539 1.513-9.601 2.269-15.187 2.269h-43.465v53.416h-11.87z"></path><path d="m647.669 100.595h86.058v10.124h-74.188v45.037h69.475v10.124h-69.475v49.226h75.061v10.125h-86.931z"></path><path d="m509.282 100.595h86.058v10.124h-74.188v45.037h69.475v10.124h-69.475v49.226h75.061v10.125h-86.931z"></path><path d="m354.871 100.595h43.117c18.968.465 33.224 5.818 42.767 16.059 9.659 10.125 14.488 25.544 14.488 46.259 0 20.714-4.829 36.192-14.488 46.433-9.543 10.124-23.799 15.419-42.767 15.885h-43.117zm11.87 114.511h25.311c8.961 0 16.642-.931 23.042-2.793 6.517-1.978 11.871-5.062 16.06-9.251 4.189-4.19 7.273-9.601 9.252-16.234 1.978-6.634 2.967-14.605 2.967-23.915s-.989-17.282-2.967-23.915c-1.979-6.633-5.063-12.045-9.252-16.234-4.189-4.19-9.543-7.215-16.06-9.077-6.4-1.979-14.081-2.968-23.042-2.968h-25.311z"></path><path clip-rule="evenodd" d="m133.248 45.5463c-34.9247 3.1973-62.2792 32.5743-62.2792 68.3417 0 17.717 6.7111 33.865 17.7291 46.041-11.018 12.176-17.7291 28.324-17.7291 46.04 0 35.768 27.3543 65.145 62.2792 68.342-9.478 26.547-34.8383 45.546-64.635 45.546-37.8939 0-68.613-30.727-68.613-68.631 0-17.338 6.42783-33.175 17.0299-45.256-10.60207-12.081-17.0299-27.917-17.0299-45.256 0-17.717 6.71166-33.866 17.7305-46.042-11.01884-12.176-17.7305-28.3246-17.7305-46.0416 0-37.9035 30.7191-68.6304 68.613-68.6304 29.7971 0 55.158 18.9988 64.635 45.5463z" fill-opacity=".3" fill-rule="evenodd"></path><path clip-rule="evenodd" d="m203.096 231.979c-36.033-2.071-64.614-31.955-64.614-68.516 0-37.377 29.872-67.775 67.039-68.6123-8.251-28.6422-34.649-49.5929-65.939-49.5929-37.894 0-68.6132 30.7269-68.6132 68.6302 0 17.717 6.7111 33.865 17.7291 46.041-11.018 12.176-17.7291 28.324-17.7291 46.04 0 37.904 30.7192 68.631 68.6132 68.631 28.69 0 53.268-17.614 63.514-42.621z" fill-opacity=".6" fill-rule="evenodd"></path><path d="m207.095 232.094c37.894 0 68.613-30.727 68.613-68.631 0-37.903-30.719-68.63-68.613-68.63-37.893 0-68.613 30.727-68.613 68.63 0 37.904 30.72 68.631 68.613 68.631z" fill-opacity=".8"></path></g></svg>